# xmcd
#
# Track frame offsets:
#	150
#	21935
#	37147
#	51632
#	67020
#	79700
#	95505
#	114262
#	129752
#	145010
#	160387
#	176820
#
# Disc length: 2675 seconds
#
# Revision: 2
# Processed by: cddbd v1.5.2PL0 Copyright (c) Steve Scherf et al.
# Submitted via: EasyCDDAExtractor 15.2.5.1
#
DISCID=a60a710c
DTITLE=Deana Carter - The Deana Carter Collection
DYEAR=2002
DGENRE=Country
TTITLE0=Strawberry Wine
TTITLE1=We Danced Anyway
TTITLE2=Did I Shave My Legs For This?
TTITLE3=Count Me In
TTITLE4=You Still Shake Me
TTITLE5=Absence Of The Heart
TTITLE6=How Do I Get There
TTITLE7=People Miss Planes
TTITLE8=I've Loved Enough To Know
TTITLE9=Rita Valentine
TTITLE10=Graffiti Bridge
TTITLE11=Angel Without A Prayer
EXTD=YEAR: 2002
EXTT0=
EXTT1=
EXTT2=
EXTT3=
EXTT4=
EXTT5=
EXTT6=
EXTT7=
EXTT8=
EXTT9=
EXTT10=
EXTT11=
PLAYORDER=
